<!--
-- @Author: https://iconduck.com/sets/nuiverse-icon-set
-- @License: BSD 3-Clause License
-->
<svg height="30" viewBox="0 0 30 30" width="30" xmlns="http://www.w3.org/2000/svg" stroke="currentColor"
  fill="currentColor">
  <path
    d="m10 6c-1.1079999 0-2 .8920001-2 2h-1c-1.108 0-2 .8920001-2 2v12c0 1.108.892 2 2 2h16c1.108 0 2-.892 2-2v-12c0-1.1079999-.892-2-2-2h-7c0-1.1079999-.892-2-2-2zm2.140625 4.855469c.40884 0 .757629.14435 1.044922.43164.298342.29834.447266.656282.447265 1.076172.000002.40884-.148923.757632-.447265 1.044922-.287293.29835-.636082.447266-1.044922.447266-.419889 0-.777829-.148916-1.076172-.447266-.287293-.28729-.431641-.636082-.431641-1.044922.000001-.41989.144348-.777832.431641-1.076172.298343-.28729.656283-.43164 1.076172-.43164zm5.734375 0c.40884 0 .757629.14435 1.044922.43164.298342.29834.447266.656282.447266 1.076172 0 .40884-.148924.757632-.447266 1.044922-.287293.29835-.636082.447266-1.044922.447266-.419889 0-.777829-.148916-1.076172-.447266-.287293-.28729-.43164-.636082-.43164-1.044922 0-.41989.144347-.777832.43164-1.076172.298343-.28729.656283-.43164 1.076172-.43164zm-2.875 4.86914c.865395 0 1.638406.097846 2.318359.291016.679954.20089 1.271199.450613 1.773438.751953.509965.30134 1.111232.702838 1.806641 1.205078l-.78711 1.171875c-.788128-.5486-1.577106-.946099-2.365234-1.193359-.780401-.24725-1.695257-.371094-2.746094-.371094s-1.969686.123844-2.757812.371094c-.780402.24726-1.565388.644759-2.3535161 1.193359l-.7871094-1.171875c.6954071-.50224 1.2966755-.903738 1.8066405-1.205078.502239-.30134 1.093484-.551063 1.773438-.751953.679953-.19322 1.452964-.291016 2.318359-.291016z" />
</svg>