<?xml version="1.0" encoding="UTF-8" standalone="no"?>
<svg
   width="1024"
   height="1024"
   version="1.1"
   id="svg4"
   sodipodi:docname="squill-icon.svg"
   viewBox="0 0 1024 1024"
   inkscape:version="1.3.2 (091e20e, 2023-11-25)"
   inkscape:export-filename="squill-icon-1024x1024.png"
   inkscape:export-xdpi="96"
   inkscape:export-ydpi="96"
   xmlns:inkscape="http://www.inkscape.org/namespaces/inkscape"
   xmlns:sodipodi="http://sodipodi.sourceforge.net/DTD/sodipodi-0.dtd"
   xmlns="http://www.w3.org/2000/svg"
   xmlns:svg="http://www.w3.org/2000/svg">
  <defs
     id="defs4">
    <filter
       inkscape:collect="always"
       style="color-interpolation-filters:sRGB"
       id="filter5"
       x="-0.027000006"
       y="-0.026999995"
       width="1.054"
       height="1.054">
      <feGaussianBlur
         inkscape:collect="always"
         stdDeviation="9.2700022"
         id="feGaussianBlur5" />
    </filter>
  </defs>
  <sodipodi:namedview
     id="namedview4"
     pagecolor="#ffffff"
     bordercolor="#000000"
     borderopacity="0.25"
     inkscape:showpageshadow="2"
     inkscape:pageopacity="0.0"
     inkscape:pagecheckerboard="0"
     inkscape:deskcolor="#d1d1d1"
     inkscape:lockguides="true"
     showgrid="true"
     inkscape:zoom="0.83972969"
     inkscape:cx="254.24848"
     inkscape:cy="254.24848"
     inkscape:window-width="3008"
     inkscape:window-height="1692"
     inkscape:window-x="0"
     inkscape:window-y="0"
     inkscape:window-maximized="0"
     inkscape:current-layer="svg4">
    <inkscape:grid
       id="grid4"
       units="px"
       originx="0"
       originy="0"
       spacingx="1"
       spacingy="1"
       empcolor="#0099e5"
       empopacity="0.30196078"
       color="#0099e5"
       opacity="0.14901961"
       empspacing="5"
       dotted="false"
       gridanglex="30"
       gridanglez="30"
       visible="true" />
  </sodipodi:namedview>
  <path
     fill="#427aa1"
     d="m 287.0194,112.28322 c 9.74059,-0.56115 19.79061,-0.11358 29.56379,-0.123 l 58.64422,-0.0289 179.32405,0.008 127.119,-0.002 38.24851,0.10014 c 15.135,0.0669 29.96491,0.20971 44.90107,3.02873 34.6805,6.54577 67.04864,21.76441 93.55868,45.13395 31.60364,27.85935 53.9569,65.58816 62.04337,106.95641 1.385,7.08887 2.66204,14.43451 3.06488,21.65606 l 0.34626,41.1808 -0.1612,70.13027 0.15428,187.37727 -0.084,107.21628 0.23913,39.10515 c 0.0986,17.03827 -0.0823,33.61176 -3.41286,50.41036 -6.55231,33.04685 -22.79293,62.99948 -45.15905,87.99537 -19.8909,22.22868 -44.77939,40.06724 -72.77474,50.66545 -20.32028,7.69314 -41.57736,11.51918 -63.21582,12.76201 l -116.33366,0.0668 -187.82531,0.0103 -103.08331,0.0677 -33.51491,-0.0411 c -14.7382,-0.0471 -29.29554,-0.37063 -43.80832,-3.21405 -34.32733,-6.72774 -66.79231,-22.93318 -92.69641,-46.4329 -35.79179,-32.4708 -59.5821,-76.9658 -61.86782,-125.54445 L 100.0423,721.38967 100.0297,657.53255 100,458.28738 l 0.0279,-108.08334 -0.0206,-34.6928 c -0.005,-16.9792 0.25867,-33.31989 3.53859,-50.05429 6.32513,-32.27136 22.72698,-64.18752 44.91337,-88.4225 9.64376,-10.5346 19.76928,-19.96959 31.3843,-28.30221 31.13481,-22.33625 68.99933,-34.80091 107.17584,-36.44902 z"
     id="path1-7"
     style="display:inline;opacity:0.2;fill:#000000;fill-opacity:1;stroke-width:0.857;stroke-dasharray:none;image-rendering:auto;filter:url(#filter5)"
     inkscape:label="drop shadown" />
  <path
     fill="#427aa1"
     d="m 287.01937,100.28322 c 9.74059,-0.561147 19.79061,-0.11358 29.56379,-0.123 l 58.64422,-0.0289 179.32405,0.008 127.119,-0.002 38.24851,0.10014 c 15.135,0.0669 29.96491,0.20971 44.90107,3.02873 34.6805,6.54577 67.04864,21.76441 93.55868,45.13395 31.60364,27.85935 53.9569,65.58816 62.04337,106.95641 1.385,7.08887 2.66204,14.43451 3.06488,21.65606 l 0.34626,41.1808 -0.1612,70.13027 0.15428,187.37727 -0.084,107.21628 0.23913,39.10515 c 0.0986,17.03827 -0.0823,33.61176 -3.41286,50.41036 -6.55231,33.04685 -22.79293,62.99948 -45.15905,87.99537 -19.8909,22.22868 -44.77939,40.06724 -72.77474,50.66545 -20.32028,7.69314 -41.57736,11.51918 -63.21582,12.76201 l -116.33366,0.0668 -187.82531,0.0103 -103.08331,0.0677 -33.51491,-0.0411 c -14.7382,-0.0471 -29.29554,-0.37063 -43.80832,-3.21405 -34.32733,-6.72774 -66.79231,-22.93318 -92.69641,-46.4329 -35.79179,-32.4708 -59.5821,-76.9658 -61.86782,-125.54445 l -0.24693,-39.3782 -0.0126,-63.85712 L 100,446.28738 l 0.0279,-108.08334 -0.0206,-34.6928 c -0.005,-16.9792 0.25867,-33.31989 3.53859,-50.05429 6.32513,-32.27136 22.72698,-64.18752 44.91337,-88.4225 9.64376,-10.5346 19.76928,-19.96959 31.3843,-28.30221 31.13481,-22.33625 68.99933,-34.80091 107.17584,-36.44902 z"
     id="path1"
     style="display:inline;stroke-width:0.856503;image-rendering:auto;fill:#ffffff" />
  <g
     id="g4"
     transform="matrix(1.04,0,0,1.04,-8.2891096,12.22592)"
     style="fill:#87aade">
    <path
       fill="#ebf2fa"
       d="m 203.53741,474.97783 -2.78588,-0.13267 -0.47354,0.61562 c 3.58607,25.00862 10.89645,49.90315 19.6767,73.47356 12.40003,33.28585 27.94887,64.64792 48.09737,93.77923 17.92948,25.92233 40.02139,50.75229 64.21654,70.68381 31.09509,25.6163 68.21823,45.55579 106.55632,57.04646 14.46437,4.33498 29.19057,7.00973 44.02479,9.61285 C 440.46498,705.85253 391.19589,634.8273 334.26727,571.54329 l -22.34334,-23.25376 c 3.8643,2.4669 7.33544,5.62901 10.96385,8.44708 l 24.09752,19.0718 c 41.20521,33.13283 81.0356,70.95622 110.92958,115.24804 10.13864,15.02163 19.02085,31.16127 27.43384,47.24342 -2.95784,-15.48598 -7.72516,-30.42712 -12.80874,-45.29221 -10.23282,-29.9194 -22.4868,-58.34046 -39.86151,-84.7077 -4.88829,-7.41748 -10.486,-14.39715 -15.9956,-21.33615 C 364.34963,521.04664 285.11309,483.62746 203.53741,474.97784 Z"
       id="path2"
       style="stroke-width:0.874252;fill:#87aade" />
    <path
       fill="#ebf2fa"
       d="m 800.27799,475.27238 c -58.90568,2.64554 -116.48236,24.0949 -164.02151,59.63008 -49.97077,37.35285 -85.87983,91.43883 -107.98037,150.08182 -6.4964,17.23733 -12.24362,34.75328 -15.02777,53.06526 10.45402,-20.05715 23.9722,-39.1139 37.65197,-57.01016 21.90611,-28.659 45.6787,-55.5313 72.37113,-79.62711 19.76226,-17.83967 41.22335,-33.9572 63.34985,-48.58256 -2.62865,3.21959 -6.27434,5.80504 -9.31688,8.64519 l -11.85647,11.97802 -44.82326,51.48906 c -19.35266,24.11353 -37.35992,49.598 -54.446,75.43365 L 516.01953,780.552 c 52.97874,-10.74502 104.19815,-31.77071 147.95335,-64.54267 56.36001,-42.21143 93.81584,-104.75424 117.59277,-170.97394 8.0492,-22.41611 15.11331,-46.12363 18.71234,-69.76301 z"
       id="path3"
       style="stroke-width:0.874252;fill:#87aade" />
    <path
       fill="#ebf2fa"
       d="m 500.04296,180.552 c -2.43852,2.33334 -4.46918,5.42294 -6.49726,8.13041 l -13.44214,19.68566 c -30.428,48.3119 -52.00921,102.11663 -60.04976,159.18254 -10.8714,77.15488 4.33351,156.05932 43.72149,222.8557 7.27583,12.33804 15.85301,24.06575 24.28589,35.59004 l 11.55404,-342.0319 0.30763,-1.25689 c 0.66623,3.3461 0.48909,6.93898 0.5608,10.34257 l 0.45021,15.68413 2.00127,49.52899 8.75088,267.48453 c 7.52297,-9.76055 15.10815,-19.79621 21.63133,-30.28915 21.47061,-34.53302 35.63254,-74.44121 43.45709,-114.46967 16.26606,-83.20317 -1.73256,-172.14856 -41.64851,-245.71058 -6.79278,-12.51933 -14.01676,-24.69815 -22.0193,-36.44799 z"
       id="path4"
       style="stroke-width:0.874252;fill:#87aade" />
  </g>
</svg>
