<?xml version="1.0" encoding="utf-8" ?>
<svg xmlns="http://www.w3.org/2000/svg" xmlns:xlink="http://www.w3.org/1999/xlink" width="508" height="508">
	<path fill="#427AA1" transform="matrix(0.496094 0 0 0.496094 3.05176e-05 7.62939e-06)" d="M249.781 30.2204C261.146 29.5648 272.872 30.0877 284.275 30.0767L352.699 30.0429L561.928 30.0518L710.246 30.0496L754.873 30.1666C772.532 30.2448 789.835 30.4116 807.262 33.7051C847.726 41.3526 885.492 59.1327 916.423 86.4356C953.297 118.984 979.378 163.063 988.813 211.394C990.429 219.676 991.919 228.258 992.389 236.695L992.793 284.807L992.605 366.741L992.785 585.656L992.687 710.918L992.966 756.605C993.081 776.511 992.87 795.874 988.984 815.5C981.339 854.109 962.39 889.103 936.294 918.306C913.086 944.276 884.047 965.117 851.383 977.499C827.674 986.487 802.872 990.957 777.625 992.409L641.891 992.487L422.743 992.499L302.469 992.578L263.365 992.53C246.169 992.475 229.184 992.097 212.251 988.775C172.199 980.915 134.32 961.982 104.096 934.527C62.3354 896.591 34.5777 844.607 31.9108 787.852L31.6227 741.846L31.608 667.241L31.5734 434.461L31.6059 308.186L31.5819 267.654C31.5764 247.817 31.8837 228.726 35.7106 209.175C43.0905 171.472 62.2276 134.184 88.1139 105.87C99.3659 93.5623 111.18 82.5393 124.732 72.8042C161.059 46.7085 205.238 32.1459 249.781 30.2204Z"/>
	<path fill="#EBF2FA" transform="matrix(0.496094 0 0 0.496094 3.05176e-05 7.62939e-06)" d="M854.776 502.704L858 502.554L858.548 503.25C854.398 531.524 845.938 559.669 835.777 586.317C821.427 623.949 803.433 659.406 780.116 692.341C759.367 721.648 733.801 749.72 705.801 772.254C669.816 801.215 626.855 823.758 582.488 836.749C565.749 841.65 548.707 844.674 531.54 847.617C580.59 763.724 637.607 683.425 703.488 611.878L729.345 585.588C724.873 588.377 720.856 591.952 716.657 595.138L688.77 616.7C641.085 654.159 594.991 696.921 560.396 746.996C548.663 763.979 538.384 782.226 528.648 800.408C532.071 782.9 537.588 766.008 543.471 749.202C555.313 715.376 569.494 683.244 589.601 653.434C595.258 645.048 601.736 637.157 608.112 629.312C668.675 554.788 760.372 512.483 854.776 502.704Z"/>
	<path fill="#EBF2FA" transform="matrix(0.496094 0 0 0.496094 3.05176e-05 7.62939e-06)" d="M164.194 503.037C232.363 506.028 298.994 530.278 354.009 570.453C411.838 612.683 453.394 673.831 478.97 740.131C486.488 759.619 493.139 779.422 496.361 800.125C484.263 777.449 468.619 755.904 452.788 735.671C427.437 703.27 399.926 672.889 369.036 645.647C346.166 625.478 321.33 607.256 295.724 590.721C298.766 594.361 302.985 597.284 306.506 600.495L320.227 614.037L372.099 672.249C394.495 699.511 415.334 728.323 435.107 757.532L493.154 848.177C431.844 836.029 372.57 812.258 321.934 775.207C256.711 727.484 213.365 656.775 185.849 581.909C176.534 556.566 168.359 529.763 164.194 503.037Z"/>
	<path fill="#EBF2FA" transform="matrix(0.496094 0 0 0.496094 3.05176e-05 7.62939e-06)" d="M511.643 169.835C514.465 172.473 516.815 175.966 519.162 179.027L534.718 201.283C569.931 255.903 594.906 316.733 604.211 381.25C616.792 468.479 599.196 557.686 553.614 633.204C545.194 647.153 535.268 660.412 525.509 673.441L512.138 286.75L511.782 285.329C511.011 289.112 511.216 293.174 511.133 297.022L510.612 314.754L508.296 370.75L498.169 673.16C489.463 662.125 480.685 650.779 473.136 638.916C448.289 599.874 431.9 554.755 422.845 509.5C404.021 415.433 424.85 314.874 471.043 231.707C478.904 217.553 487.264 203.784 496.525 190.5L511.643 169.835Z"/>
</svg>
