<?xml version="1.0" encoding="UTF-8" standalone="no"?>
<svg x="0px" y="0px" width="256" viewBox="0 0 256 256" stroke="none" fill="#427aa1" version="1.1" height="256"
   xmlns="http://www.w3.org/2000/svg" xmlns:svg="http://www.w3.org/2000/svg">
   <path id="top"
      d="m 102.93848,68.924592 c 5.52724,-14.510392 13.01909,-27.629894 23.22775,-39.502083 36.83605,26.351222 40.37788,113.163581 4.95821,142.836101 -1.26537,-31.3338 -2.49942,-61.89283 -3.73348,-92.451868 -0.46341,0.01448 -0.92684,0.02896 -1.39025,0.04344 -1.19122,30.694528 -2.38243,61.389068 -3.58449,92.363118 C 101.83377,153.01387 87.68683,110.61211 102.93848,68.924592 Z"
      style="stroke-width:1.09544" />
   <path id="right"
      d="m 172.92406,146.73182 c 18.49021,-13.04487 38.80272,-20.83245 63.48723,-21.75126 -5.45404,24.23452 -15.53668,45.64103 -33.00223,63.92609 -18.20335,19.05744 -42.00723,29.48687 -70.30515,35.03165 15.85256,-24.33805 32.48705,-46.67523 52.55387,-66.96509 -21.90528,12.88515 -37.88404,30.6488 -52.70414,49.49173 6.6438,-23.32702 18.5879,-43.81333 39.97042,-59.73312 z"
      style="stroke-width:1.09544" />
   <path id="left"
      d="m 66.406705,155.47655 c 8.794948,9.99114 18.010775,19.71462 26.274769,30.04342 9.606686,12.00696 18.379146,24.54446 27.816636,37.2599 -40.365737,4.18428 -104.579607,-57.8425 -102.36103,-97.56308 51.819313,2.52273 92.79401,37.67663 101.66563,82.25264 -13.00126,-21.78596 -31.299981,-38.05844 -52.777587,-52.44251 -0.791258,-0.22926 -1.069578,-0.18898 -1.347886,-0.14873 0.243156,0.19946 0.486323,0.3989 0.729468,0.59836 z"
      style="stroke-width:1.09544" />
</svg>