<svg fill="none" stroke="currentColor" height="16" viewBox="0 0 16 16" width="16" xmlns="http://www.w3.org/2000/svg">
<path d="m6 9c.93191 0 1.71496.63738 1.93699 1.5h5.56301c.2761 0 .5.2239.5.5 0 .2455-.1769.4496-.4101.4919l-.0899.0081-5.56327.001c-.22238.8621-1.00518 1.499-1.93673 1.499s-1.71435-.6369-1.93673-1.499l-1.56327-.001c-.27614 0-.5-.2239-.5-.5 0-.2455.17688-.4496.41012-.4919l.08988-.0081h1.56301c.22203-.86262 1.00508-1.5 1.93699-1.5zm4-6c.9319 0 1.715.63738 1.937 1.49998l1.563.00002c.2761 0 .5.22386.5.5 0 .24546-.1769.44961-.4101.49194l-.0899.00806-1.5633.00102c-.2223.8621-1.0051 1.49898-1.9367 1.49898-.93155 0-1.71435-.63688-1.93673-1.49898l-5.56327-.00102c-.27614 0-.5-.22386-.5-.5 0-.24546.17688-.44961.41012-.49194l.08988-.00806 5.56301-.00002c.22203-.8626 1.00508-1.49998 1.93699-1.49998z" fill="currentBackground"/></svg>