<svg height="48" fill="currentColor" viewBox="0 0 48 48" width="48" xmlns="http://www.w3.org/2000/svg"><path d="m0 0h48v48h-48z" fill="none"/><path d="m25.2 2a21.8 21.8 0 0 0 -16.3 6 21.6 21.6 0 0 0 -6.9 16 22.1 22.1 0 0 0 20.9 22h.1a3.2 3.2 0 0 0 2.1-.8 3.1 3.1 0 0 0 .9-2.2v-9.2a9.8 9.8 0 0 0 8-9.6v-4.2a2.1 2.1 0 0 0 -2-2h-2v-5.1a2 2 0 1 0 -4 0v5.1h-4v-5.1a2 2 0 1 0 -4 0v5.1h-2a2 2 0 0 0 -2 2v4.1a10 10 0 0 0 2.8 7 10.1 10.1 0 0 0 5.2 2.7v8.1a18 18 0 0 1 -10.4-31 18.3 18.3 0 0 1 13.4-4.9 18.3 18.3 0 0 1 17 18.2 17.4 17.4 0 0 1 -5.3 12.5 2.1 2.1 0 0 0 2.9 2.9 21.7 21.7 0 0 0 6.4-15.4 22.2 22.2 0 0 0 -20.8-22.2zm-7.2 22.1v-2.1h12v2.2a5.8 5.8 0 0 1 -5.7 5.8h-.6a5.6 5.6 0 0 1 -4-1.7 5.9 5.9 0 0 1 -1.7-4.2z"/></svg>